<svg xmlns="http://www.w3.org/2000/svg" data-name="Layer 1" viewBox="0 0 1920 800">
  <defs>
    <linearGradient id="a" x1="665.06" x2="122.07" y1="272.93" y2="518.92" gradientUnits="userSpaceOnUse">
      <stop offset="0" stop-color="#03d5fe"/>
      <stop offset=".14" stop-color="#0ac8fe"/>
      <stop offset=".4" stop-color="#1ba5fe"/>
      <stop offset=".75" stop-color="#366efe"/>
      <stop offset="1" stop-color="#4c42fe"/>
    </linearGradient>
  </defs>
  <path d="M177 186.49h416v427.02H177z" style="fill:#fff"/>
  <path d="M727.88 376.65 576.45 114.36A46.71 46.71 0 0 0 536 91H233.14a46.7 46.7 0 0 0-40.45 23.35L41.26 376.65a46.66 46.66 0 0 0 0 46.7l151.43 262.29A46.7 46.7 0 0 0 233.14 709H536a46.72 46.72 0 0 0 40.45-23.35l151.43-262.3a46.71 46.71 0 0 0 0-46.7Zm-457.79 132.5H215a8.69 8.69 0 0 1-8.69-8.69V299.54a8.69 8.69 0 0 1 8.69-8.69h55.14a8.69 8.69 0 0 1 8.69 8.69v200.92a8.69 8.69 0 0 1-8.74 8.69Zm142.05 69.53H357a8.69 8.69 0 0 1-8.68-8.69V230a8.69 8.69 0 0 1 8.68-8.69h55.15a8.69 8.69 0 0 1 8.69 8.69v340a8.69 8.69 0 0 1-8.7 8.68Zm142-69.53H499a8.69 8.69 0 0 1-8.69-8.69V299.54a8.69 8.69 0 0 1 8.69-8.69h55.14a8.69 8.69 0 0 1 8.69 8.69v200.92a8.69 8.69 0 0 1-8.65 8.69Z" style="fill:url(#a)"/>
  <path d="M808.67 509.27V268.81h56.77v34.35c10-23.38 34.35-39.12 64.89-39.12 32.92 0 55.35 13.84 67.27 42 13.84-28.15 40.08-42 78.73-42 53 0 83.49 36.74 83.49 96.38v148.85h-57.25V368.53c0-32.92-15.75-53.44-42.94-53.44-28.15 0-47.71 22.9-47.71 55.82v138.36h-56.78V368.53c0-32.92-15.74-53.44-42.94-53.44-26.72 0-46.76 23.38-46.76 55.82v138.36ZM1197.49 389c0-38.17 11.93-68.7 35.31-92.08 23.86-23.38 53.91-34.83 90.65-34.83 34.83 0 63.46 11.45 85.4 34.83 22.43 23.38 33.4 52 33.4 86.36 0 7.15-.48 13.83-1 20h-187c1.91 38.16 30.06 63 72.52 63 24.81 0 46.28-9.06 64.89-27.67l34.35 33.4c-27.19 28.63-60.59 42.94-101.15 42.94-37.69 0-68.7-11.45-92.08-33.88s-35.31-52.48-35.31-90.17Zm186.56-25.76c0-14.32-6.21-26.72-18.14-36.74-11.92-10.49-25.76-15.74-42.46-15.74-17.65 0-33.4 5.25-46.28 15.26s-20 22.43-21.47 37.22Zm96.36 146.03V268.81h56.78v35.78c11.45-25.28 37.69-40.55 71.56-40.55a89.28 89.28 0 0 1 17.18 1.43v55.35a121.77 121.77 0 0 0-23.86-2.39c-39.6 0-64.88 24.81-64.88 64.41v126.43ZM1640.24 389c0-38.17 11.93-68.7 35.31-92.08 23.85-23.38 53.91-34.83 90.65-34.83 34.83 0 63.46 11.45 85.4 34.83 22.43 23.38 33.4 52 33.4 86.36 0 7.15-.48 13.83-1 20h-187c1.91 38.16 30.06 63 72.52 63 24.81 0 46.28-9.06 64.89-27.67l34.35 33.4c-27.2 28.63-60.59 42.94-101.15 42.94-37.69 0-68.7-11.45-92.08-33.88s-35.31-52.48-35.31-90.17Zm186.55-25.76c0-14.32-6.2-26.72-18.13-36.74-11.92-10.49-25.76-15.74-42.46-15.74-17.65 0-33.4 5.25-46.28 15.26s-20 22.43-21.47 37.22Z" style="fill:#111f44"/>
</svg>
